<svg xmlns="http://www.w3.org/2000/svg" xmlns:xlink="http://www.w3.org/1999/xlink" width="385.152" height="203.008" viewBox="0 0 385.152 203.008">
  <defs>
    <linearGradient id="linear-gradient" x1="0.04" y1="0.396" x2="1.153" y2="0.386" gradientUnits="objectBoundingBox">
      <stop offset="0" stop-color="#855ef9"/>
      <stop offset="0.389" stop-color="#ab88d7"/>
      <stop offset="1" stop-color="#e67537"/>
    </linearGradient>
    <clipPath id="clip-path">
      <rect id="Rechteck_297" data-name="Rechteck 297" width="385.152" height="203.008" fill="url(#linear-gradient)"/>
    </clipPath>
  </defs>
  <g id="Fybe-Logo-Color" clip-path="url(#clip-path)">
    <path id="Pfad_335" data-name="Pfad 335" d="M144.062,125.344l-.131,2.538-.132-2.538-23.137-85H99.624l35.231,116.977s-8.369,24.153-10.763,26.494H7.576L0,203.008l115.4-.267q14.456,0,21.559-6.471t11.569-21.186l40.49-134.739H167.2Zm-105.7-44.4H85.429l2.893-17H38.366v-44.4H93.055V2.282h-77.3V159.6H38.366Zm346.783,22.329V67.5A28.605,28.605,0,0,0,381.6,53.286q-3.551-6.341-12.226-10.277t-24.189-3.934q-16.83,0-25.372,4.061h0q-8.545,4.062-11.568,10.53a32.833,32.833,0,0,0-3.024,14.083v64.2a34.306,34.306,0,0,0,2.893,13.956q2.889,6.6,11.3,10.657t24.714,4.06q16.037,0,24.978-4.06t12.49-11.04a33.359,33.359,0,0,0,3.549-15.352V114.945l-22.085,1.776v9.9q0,8.124-4.6,12.434t-14.593,4.314q-7.629,0-12.1-4.188t-4.469-11.291V103.273ZM327.311,71.3a15.325,15.325,0,0,1,4.6-11.546q4.6-4.436,13.277-4.44,8.936,0,13.41,4.44a15.579,15.579,0,0,1,4.47,11.546V91.855H327.311ZM272.1,42.882q-6.311-2.533-18.4-2.538H225.563V0H203.477V159.6h57.055q11.565,0,16.169-2.918t5.653-10.4a162.851,162.851,0,0,0,1.051-21.188V66.988q0-9.9-2.5-15.733a15.349,15.349,0,0,0-8.807-8.373m-11.7,94.139q-.926,3.3-3.155,4.314a17.838,17.838,0,0,1-6.968,1.015H225.563V57.6h24.189q5.521,0,8.019,1.4a6.14,6.14,0,0,1,3.024,4.694,61.728,61.728,0,0,1,.526,9.135V126.87a40.973,40.973,0,0,1-.92,10.151" fill="url(#linear-gradient)"/>
  </g>
</svg>
